<svg xmlns="http://www.w3.org/2000/svg" viewBox="0 0 512.002 512.002"><path fill="#3f6d8e" d="M415.05 38.964H67.713c-18.092 0-32.811 14.719-32.811 32.811v246.11c0 16.001 11.858 29.869 27.638 32.397L68.449 355h340.765l11.009-4.718c15.78-2.528 27.638-16.396 27.638-32.397V71.775c0-18.092-14.719-32.811-32.811-32.811z"/><path fill="#365e7d" d="M66.202 317.885V71.775c0-18.092 14.719-32.811 32.811-32.811h-31.3c-18.092 0-32.811 14.719-32.811 32.811v246.11c0 16.001 11.858 29.869 27.638 32.397L68.449 355h31.3l-5.909-4.718c-15.78-2.528-27.638-16.396-27.638-32.397z"/><path fill="#e4f6ff" d="M414.391 96.916H70.332l-5.954 6.215v212.054a5.887 5.887 0 0 0 5.887 5.887h342.234a5.887 5.887 0 0 0 5.886-5.887V103.131z"/><path fill="#d3effb" d="M102.644 315.185V103.132l5.954-6.215H70.332l-5.954 6.215v212.054a5.887 5.887 0 0 0 5.887 5.887h38.266a5.888 5.888 0 0 1-5.887-5.888z"/><path fill="#dd636e" d="M102.644 68.219h-32.38a5.887 5.887 0 0 0-5.887 5.887v29.026h38.266l2.517-2.685V70.088z"/><path fill="#b1e4f9" d="M412.498 68.219H102.644v34.913h315.74V74.106a5.887 5.887 0 0 0-5.886-5.887z"/><path fill="#407093" d="M469.827 350.282H12.936c-3.026 0-5.478 2.477-5.478 5.532v19.028c0 14.118 11.439 25.669 25.421 25.669h417.005c13.981 0 25.421-11.551 25.421-25.669v-19.028c0-3.055-2.453-5.532-5.478-5.532z"/><path fill="#365e7d" d="M64.378 374.841v-19.028c0-3.055 2.453-5.532 5.478-5.532h-56.92c-3.026 0-5.478 2.477-5.478 5.532v19.028c0 14.118 11.439 25.669 25.421 25.669H89.8c-13.982 0-25.422-11.551-25.422-25.669zm434.872 44.016V223.524l5.209-4.929V196.65c0-11.269-9.135-20.404-20.405-20.404H358.822c-11.269 0-20.404 9.135-20.404 20.404v21.945l5.833 5.263v196.836l-5.833 3.611V453.3c0 11.269 9.135 20.404 20.404 20.404h125.233c11.269 0 20.405-9.135 20.405-20.404v-28.995z"/><path fill="#294b64" d="M368.501 453.298v-28.995l5.833-3.611V223.857l-5.833-5.263V196.65c0-11.269 9.135-20.404 20.404-20.404h-30.083c-11.269 0-20.404 9.135-20.404 20.404v21.945l5.833 5.263v196.836l-5.833 3.611V453.3c0 11.269 9.135 20.404 20.404 20.404h30.083c-11.268-.001-20.404-9.137-20.404-20.406z"/><circle cx="236.381" cy="212.102" r="62.717" fill="#dd636e"/><path fill="#da4a54" d="M197.664 212.102c0-30.532 21.822-55.956 50.717-61.557a63.004 63.004 0 0 0-12-1.16c-34.638 0-62.717 28.079-62.717 62.717s28.079 62.717 62.717 62.717c4.105 0 8.115-.407 12-1.16-28.895-5.6-50.717-31.025-50.717-61.557z"/><path fill="#e4f6ff" d="M261.903 205.607l-32.184-21.946c-5.219-3.558-12.291.179-12.291 6.495v43.891c0 6.316 7.072 10.053 12.291 6.495l32.184-21.946c4.576-3.119 4.576-9.868 0-12.989z"/><path fill="#d3effb" d="M241.428 191.646l-11.709-7.984c-5.219-3.558-12.291.179-12.291 6.495v43.891c0 6.316 7.072 10.053 12.291 6.495l11.709-7.984z"/><path fill="#90d8f9" d="M338.418 247.19H504.46v177.113H338.418z"/><path fill="#75cef9" d="M338.418 247.19h30.081v177.114h-30.081z"/><path fill="#365e7d" d="M429.41 454.926h-15.943a7.5 7.5 0 0 1 0-15h15.943a7.5 7.5 0 0 1 0 15z"/><circle cx="421.439" cy="335.458" r="54.585" fill="#dd636e"/><path fill="#da4a54" d="M387.478 335.458c0-26.62 19.059-48.776 44.273-53.599a54.829 54.829 0 0 0-10.312-.986c-30.147 0-54.585 24.439-54.585 54.585s24.438 54.585 54.585 54.585a54.82 54.82 0 0 0 10.312-.986c-25.214-4.823-44.273-26.979-44.273-53.599z"/><path fill="#dd636e" d="M338.418 218.594h30.583v30.018h-30.583z"/><path fill="#b1e4f9" d="M368.499 218.594v30.018H504.46v-30.018H368.499z"/><path fill="#e4f6ff" d="M443.651 329.805l-28.011-19.1c-4.542-3.097-10.697.156-10.697 5.653v38.2c0 5.497 6.155 8.75 10.697 5.653l28.011-19.1c3.983-2.716 3.983-8.59 0-11.306z"/><path fill="#d3effb" d="M425.568 317.475l-9.928-6.77c-4.542-3.097-10.697.156-10.697 5.653v38.2c0 5.497 6.155 8.75 10.697 5.653l9.928-6.77z"/><path d="M484.098 168.413h-28.693v-96.97c0-22.228-18.084-40.311-40.312-40.311H67.756c-22.228 0-40.311 18.083-40.311 40.311v246.11c0 9.259 3.264 17.963 8.747 24.897H12.979C5.822 342.449 0 348.296 0 355.481v19.028c0 18.29 14.769 33.169 32.922 33.169h186.003c4.143 0 7.5-3.358 7.5-7.5s-3.357-7.5-7.5-7.5H32.922c-9.882 0-17.922-8.15-17.922-18.169v-17.06h315.961v35.229h-77.036c-4.143 0-7.5 3.358-7.5 7.5s3.357 7.5 7.5 7.5h77.036v45.288c0 15.387 12.518 27.905 27.904 27.905h125.232c15.387 0 27.904-12.518 27.904-27.905V196.318c.001-15.387-12.517-27.905-27.903-27.905zM330.961 342.449H63.22c-11.882-2.179-20.774-12.784-20.774-24.897V71.443c0-13.957 11.354-25.311 25.311-25.311h347.337c13.957 0 25.312 11.354 25.312 25.311v96.971h-14.477v-94.64c0-7.381-6.005-13.387-13.386-13.387H70.309c-7.382 0-13.387 6.005-13.387 13.387v241.08c0 7.381 6.005 13.387 13.387 13.387h260.653v14.208zm79.967-267.063v19.913h-300.74V75.386zm-315.74 0v19.913H71.921V75.386zm235.773 120.931V313.24H71.921V110.299h339.007v58.114h-52.062c-15.387 0-27.905 12.518-27.905 27.904zm15 29.445h15.081v15.018h-15.081zm151.041 227.204c0 7.116-5.789 12.905-12.904 12.905H358.865c-7.115 0-12.904-5.789-12.904-12.905v-21.495h151.041zm0-36.495H345.961V255.78h151.041zm0-175.691h-120.96v-15.018h120.96zm0-30.018H345.961v-14.445c0-7.115 5.789-12.904 12.904-12.904h125.232c7.115 0 12.904 5.789 12.904 12.904v14.445z"/><path d="M413.51 454.593h15.943c4.143 0 7.5-3.358 7.5-7.5s-3.357-7.5-7.5-7.5H413.51c-4.143 0-7.5 3.358-7.5 7.5s3.357 7.5 7.5 7.5zM266.171 199.078l-32.184-21.945c-10.185-6.946-24.017.362-24.017 12.691v43.891c0 12.326 13.827 19.638 24.017 12.691l32.184-21.945c8.936-6.093 8.934-19.292 0-25.383zm-8.451 12.99l-32.184 21.946c-.097.065-.18.123-.373.021-.192-.102-.192-.203-.192-.32v-43.891c0-.117 0-.218.192-.32a.403.403 0 0 1 .185-.056c.076 0 .13.037.188.077l32.184 21.945c.067.046.158.108.158.299 0 .192-.091.254-.158.299z"/><path d="M236.425 141.552c-38.718 0-70.218 31.5-70.218 70.217s31.5 70.217 70.218 70.217 70.217-31.499 70.217-70.217-31.499-70.217-70.217-70.217zm0 125.435c-30.447 0-55.218-24.77-55.218-55.217s24.771-55.217 55.218-55.217c30.446 0 55.217 24.771 55.217 55.217s-24.771 55.217-55.217 55.217zm183.482 37.189c-9.527-6.496-22.422.367-22.422 11.85v38.2c0 11.577 12.974 18.292 22.423 11.849l28.01-19.1c8.344-5.688 8.342-18.011.001-23.699zm-7.422 48.805V317.27l26.186 17.856z"/><path d="M421.481 397.211c26.099 0 49.576-16.494 58.42-41.043a7.499 7.499 0 0 0-4.514-9.598 7.502 7.502 0 0 0-9.598 4.514c-6.708 18.618-24.515 31.127-44.309 31.127-25.963 0-47.085-21.123-47.085-47.085s21.122-47.085 47.085-47.085c20.626 0 38.666 13.202 44.892 32.851a7.5 7.5 0 1 0 14.299-4.53c-8.208-25.911-31.995-43.32-59.19-43.32-34.233 0-62.085 27.852-62.085 62.085s27.852 62.084 62.085 62.084z"/></svg>