<svg xmlns="http://www.w3.org/2000/svg" viewBox="0 0 512 512"><path fill="#455a64" d="M256 0c-76.544.094-138.573 62.122-138.667 138.667V224c0 5.891 4.776 10.667 10.667 10.667h42.667c5.891 0 10.667-4.776 10.667-10.667v-85.333C181.333 97.429 214.763 64 256 64s74.667 33.429 74.667 74.667V224c0 5.891 4.776 10.667 10.667 10.667H384c5.891 0 10.667-4.776 10.667-10.667v-85.333C394.573 62.122 332.544.094 256 0z"/><path fill="#ffc107" d="M128 213.333h256c29.455 0 53.333 23.878 53.333 53.333v192C437.333 488.122 413.455 512 384 512H128c-29.455 0-53.333-23.878-53.333-53.333v-192c0-29.456 23.878-53.334 53.333-53.334z"/><path fill="#455a64" d="M309.333 330.667c.124-29.455-23.653-53.434-53.108-53.558-29.455-.124-53.434 23.653-53.558 53.108a53.331 53.331 0 0 0 29.674 48.023l-8.235 57.6c-.825 5.833 3.235 11.23 9.068 12.055.494.07.993.105 1.492.105h42.667c5.891.06 10.715-4.667 10.774-10.558.005-.543-.03-1.086-.108-1.623l-8.235-57.6a53.522 53.522 0 0 0 29.569-47.552z"/><path d="M384 234.667h-42.667c-5.891 0-10.667-4.776-10.667-10.667v-85.333C330.667 97.429 297.237 64 256 64s-74.667 33.429-74.667 74.667V224c0 5.891-4.776 10.667-10.667 10.667H128c-5.891 0-10.667-4.776-10.667-10.667v-85.333C117.333 62.083 179.417 0 256 0s138.667 62.083 138.667 138.667V224c0 5.891-4.776 10.667-10.667 10.667zm-32-21.334h21.333v-74.667c0-64.801-52.532-117.333-117.333-117.333S138.667 73.865 138.667 138.667v74.667H160v-74.667c0-53.019 42.981-96 96-96s96 42.981 96 96v74.666z"/><path d="M384 512H128c-29.455 0-53.333-23.878-53.333-53.333v-192c0-29.455 23.878-53.333 53.333-53.333h256c29.455 0 53.333 23.878 53.333 53.333v192C437.333 488.122 413.455 512 384 512zM128 234.667c-17.673 0-32 14.327-32 32v192c0 17.673 14.327 32 32 32h256c17.673 0 32-14.327 32-32v-192c0-17.673-14.327-32-32-32H128z"/><path d="M277.333 448h-42.667c-5.891.06-10.715-4.667-10.774-10.558-.005-.543.03-1.086.108-1.623l8.235-57.6c-26.396-13.072-37.196-45.067-24.124-71.463 13.072-26.396 45.067-37.196 71.463-24.124 26.396 13.072 37.196 45.067 24.124 71.463a53.33 53.33 0 0 1-24.124 24.124l8.235 57.6c.837 5.831-3.212 11.237-9.044 12.074-.475.067-.953.103-1.432.107zm-30.378-21.333h18.091l-7.68-53.717a10.667 10.667 0 0 1 7.552-11.755c13.666-3.853 23.099-16.329 23.083-30.528 0-17.673-14.327-32-32-32s-32 14.327-32 32c-.017 14.199 9.417 26.675 23.083 30.528a10.667 10.667 0 0 1 7.552 11.755l-7.681 53.717z"/></svg>