<svg xmlns="http://www.w3.org/2000/svg" viewBox="0 0 50 50"><path fill="#5d4037" d="M46.938 16.836C46.938 41.82 25 49.375 25 49.375S3.062 41.82 3.062 16.835c0-3.046.243-5.608.489-7.679.363-3.047 2.437-5.484 5.363-6.215C12.691 1.844 18.664.625 25 .625c6.336 0 12.309 1.219 16.21 2.316 2.923.73 4.997 3.29 5.36 6.215.125 2.07.367 4.754.367 7.68zm0 0"/><path fill="#4caf50" d="M25 4.281c5.973 0 11.578 1.219 15.234 2.196 1.461.363 2.438 1.582 2.68 3.168.246 2.316.367 4.753.367 7.19 0 19.013-14.015 26.688-18.281 28.517-4.266-1.95-18.281-9.625-18.281-28.516 0-2.438.12-4.875.367-7.191a3.506 3.506 0 0 1 2.68-3.168C13.422 5.5 19.027 4.28 25 4.28m0-3.656c-6.336 0-12.309 1.219-16.21 2.316-2.802.73-4.997 3.29-5.24 6.215-.245 2.07-.487 4.754-.487 7.68C3.063 41.82 25 49.375 25 49.375s21.938-7.555 21.938-32.54c0-3.046-.243-5.608-.489-7.679-.363-3.047-2.437-5.484-5.363-6.215C37.309 1.844 31.336.625 25 .625zm0 0"/><path fill="#dcedc8" d="M23.781 29.875h2.438v9.75H23.78zm0 0"/><path fill="#4caf50" d="M25 7.938s-7.313 6.093-7.313 15.843c0 6.336 4.024 10.36 6.094 12.188L25 32.312l1.219 3.657c2.07-1.828 6.093-5.852 6.093-12.188C32.313 14.031 25 7.938 25 7.938zm0 0"/><path fill="#81c784" d="M25 7.938s-7.313 6.093-7.313 15.843c0 6.336 4.024 10.36 6.094 12.188L25 32.312zm0 0"/></svg>