<svg xmlns="http://www.w3.org/2000/svg" viewBox="0 0 512 512"><path fill="#72f2eb" d="M402.036 34.786v442.428c0 15.073-12.223 27.286-27.286 27.286h-237.5c-15.073 0-27.286-12.213-27.286-27.286V34.786c0-15.073 12.213-27.286 27.286-27.286h237.5c15.063 0 27.286 12.213 27.286 27.286z"/><path fill="#14c4bb" d="M402.036 34.786v52.432H109.964V34.786c0-15.073 12.213-27.286 27.286-27.286h237.5c15.063 0 27.286 12.213 27.286 27.286z"/><path fill="#b0d1cf" d="M402.036 34.786v38.231H109.964V34.786c0-15.073 12.213-27.286 27.286-27.286h237.5c15.063 0 27.286 12.213 27.286 27.286z"/><path fill="#14c4bb" d="M402.036 423.92v53.294c0 15.073-12.223 27.286-27.286 27.286h-237.5c-15.073 0-27.286-12.213-27.286-27.286V423.92h292.072z"/><path fill="#b0d1cf" d="M402.036 438.121v39.093c0 15.073-12.223 27.286-27.286 27.286h-237.5c-15.073 0-27.286-12.213-27.286-27.286v-39.093h292.072z"/><path fill="#f9b767" d="M242.713 438.121h-95.248V144.464a8.157 8.157 0 0 1 8.157-8.157h78.934a8.157 8.157 0 0 1 8.157 8.157v293.657z"/><path fill="#ef9d45" d="M147.465 423.92h95.248v14.201h-95.248z"/><path fill="#5089dd" d="M358.52 225.762h-73.451a8.157 8.157 0 0 1-8.157-8.157v-73.451a8.157 8.157 0 0 1 8.157-8.157h73.451a8.157 8.157 0 0 1 8.157 8.157v73.451a8.157 8.157 0 0 1-8.157 8.157zm.048 66.436h-73.547a8.109 8.109 0 0 1-8.109-8.109v-19.517a8.109 8.109 0 0 1 8.109-8.109h73.547a8.109 8.109 0 0 1 8.109 8.109v19.517a8.11 8.11 0 0 1-8.109 8.109z"/><path d="M374.75 0h-237.5c-19.181 0-34.786 15.605-34.786 34.786v294.238a7.5 7.5 0 0 0 15 0V80.517h277.071v350.104H250.213V144.464c0-8.633-7.024-15.657-15.657-15.657h-78.934c-8.633 0-15.657 7.024-15.657 15.657v83.894a7.5 7.5 0 0 0 15 0v-83.894c0-.362.295-.657.657-.657h78.934c.362 0 .657.295.657.657v286.157h-80.248V258.976a7.5 7.5 0 0 0-15 0v171.646h-22.5v-70.979a7.5 7.5 0 0 0-15 0v117.572c0 19.181 15.605 34.786 34.786 34.786h19.774a7.5 7.5 0 0 0 0-15H137.25c-10.91 0-19.786-8.876-19.786-19.786v-31.593h277.071v31.593c0 10.91-8.876 19.786-19.786 19.786H187.642a7.5 7.5 0 0 0 0 15H374.75c19.181 0 34.786-15.605 34.786-34.786V34.786C409.536 15.605 393.931 0 374.75 0zM117.464 65.517v-30.73c0-10.91 8.876-19.786 19.786-19.786h237.5c10.91 0 19.786 8.876 19.786 19.786v30.73H117.464z"/><path d="M266.793 32.758H190.86a7.5 7.5 0 0 0 0 15h75.933a7.5 7.5 0 0 0 0-15zM321.14 32a7.5 7.5 0 0 0-7.5 7.5v1.518a7.5 7.5 0 0 0 15 0V39.5a7.5 7.5 0 0 0-7.5-7.5zm-20.862 0a7.5 7.5 0 0 0-7.5 7.5v1.518a7.5 7.5 0 0 0 15 0V39.5a7.5 7.5 0 0 0-7.5-7.5zm-22.797 446.811a7.5 7.5 0 0 0 0-15h-42.963a7.5 7.5 0 0 0 0 15h42.963zm7.588-245.549h73.451c8.633 0 15.657-7.024 15.657-15.657v-73.451c0-8.633-7.024-15.657-15.657-15.657h-73.451c-8.633 0-15.657 7.024-15.657 15.657v73.451c0 8.633 7.024 15.657 15.657 15.657zm-.657-89.108c0-.362.295-.657.657-.657h73.451c.362 0 .657.295.657.657v73.451a.658.658 0 0 1-.657.657h-73.451a.658.658 0 0 1-.657-.657v-73.451zm-15 139.934c0 8.607 7.002 15.609 15.609 15.609h73.547c8.607 0 15.609-7.002 15.609-15.609v-19.517c0-8.607-7.002-15.609-15.609-15.609h-73.547c-8.607 0-15.609 7.002-15.609 15.609v19.517zm15-19.517a.61.61 0 0 1 .609-.609h73.547a.61.61 0 0 1 .609.609v19.517a.61.61 0 0 1-.609.609h-73.547a.61.61 0 0 1-.609-.609v-19.517zm-7.5 67.02h89.766a7.5 7.5 0 0 0 0-15h-89.766a7.5 7.5 0 0 0 0 15zm0 27.345h89.766a7.5 7.5 0 0 0 0-15h-89.766a7.5 7.5 0 0 0 0 15zm0 27.343h89.766a7.5 7.5 0 0 0 0-15h-89.766a7.5 7.5 0 0 0 0 15zm0 27.345h89.766a7.5 7.5 0 0 0 0-15h-89.766a7.5 7.5 0 0 0 0 15z"/><path d="M300.053 206.465a7.463 7.463 0 0 0 3.212.728 7.5 7.5 0 0 0 6.78-4.284l1.605-3.38h18.978l1.605 3.38a7.5 7.5 0 0 0 13.55-6.436l-17.869-37.621a7.501 7.501 0 0 0-13.549 0l-17.869 37.621a7.5 7.5 0 0 0 3.557 9.992zm23.451-21.937h-4.729l2.365-4.978 2.364 4.978z"/></svg>