<svg xmlns="http://www.w3.org/2000/svg" viewBox="0 0 511.922 511.922"><path fill="#f1f1f4" d="M456.049 93.306a3151.422 3151.422 0 0 0-400.181 0c-20.855 1.326-37.947 17.22-40.557 37.954-10.466 83.137-10.466 166.273 0 249.41 2.61 20.734 19.702 36.628 40.557 37.954a3151.422 3151.422 0 0 0 400.181 0c20.855-1.326 37.947-17.22 40.557-37.954 10.466-83.137 10.466-166.273 0-249.41-2.61-20.734-19.702-36.628-40.557-37.954z"/><path fill="#dfeaef" d="M63.71 419.1c-2.61-.15-5.23-.31-7.84-.48-20.86-1.32-37.95-17.22-40.56-37.95-10.47-83.139-10.47-166.278 0-249.407 2.61-20.74 19.7-36.63 40.56-37.96 2.62-.17 5.24-.33 7.85-.48-11.02 7.1-18.81 18.8-20.54 32.529-10.96 87.069-10.96 174.148 0 261.217C44.91 400.3 52.7 412 63.71 419.1z"/><circle cx="102.099" cy="257.962" r="58.977" fill="#dd5790"/><path fill="#da387d" d="M115.35 315.452c-4.26.97-8.7 1.49-13.25 1.49-32.57 0-58.979-26.4-58.979-58.979 0-32.57 26.41-58.979 58.979-58.979 4.55 0 8.99.52 13.25 1.49-26.2 6.02-45.73 29.48-45.73 57.489 0 28.019 19.53 51.469 45.73 57.489z"/><path d="M504.047 130.319c-3.05-24.222-23.036-42.936-47.528-44.498a3092.39 3092.39 0 0 0-31.907-1.865 7.5 7.5 0 1 0-.791 14.979c9.717.513 20.104 1.12 31.749 1.855 17.314 1.104 31.443 14.311 33.595 31.402a991.318 991.318 0 0 1 0 247.545c-2.152 17.092-16.281 30.298-33.594 31.402-132.455 8.421-266.774 8.421-399.226 0-17.314-1.104-31.443-14.31-33.595-31.401a992.278 992.278 0 0 1 0-247.546c2.152-17.091 16.281-30.298 33.594-31.402 112.094-7.129 225.773-8.237 337.882-3.292a7.5 7.5 0 0 0 .661-14.985c-112.646-4.969-226.867-3.855-339.496 3.308-24.488 1.562-44.474 20.275-47.524 44.499a1007.329 1007.329 0 0 0 0 251.292c3.05 24.222 23.036 42.936 47.525 44.498 66.543 4.23 133.554 6.346 200.565 6.346s134.023-2.115 200.566-6.346c24.488-1.562 44.474-20.275 47.524-44.498a1006.29 1006.29 0 0 0 0-251.293z"/><path d="M347.691 205.738a7.5 7.5 0 0 0 0-15h-50.799a7.5 7.5 0 0 0-7.5 7.5v120.56a7.5 7.5 0 0 0 7.5 7.5h50.799a7.5 7.5 0 0 0 0-15h-43.299v-45.28h39.553a7.5 7.5 0 0 0 0-15h-39.553v-45.28zm81.766-1.111c10.689 0 20.999 3.148 29.815 9.104a7.5 7.5 0 0 0 8.398-12.43c-11.306-7.638-24.519-11.675-38.212-11.675-37.68 0-68.335 30.655-68.335 68.335s30.655 68.335 68.335 68.335c14.838 0 28.108-4.834 38.377-13.979a56.525 56.525 0 0 0 5.695-5.875 7.5 7.5 0 0 0-11.493-9.639 41.621 41.621 0 0 1-4.179 4.313c-7.584 6.755-17.14 10.18-28.4 10.18-29.409 0-53.335-23.926-53.335-53.335s23.925-53.334 53.334-53.334zm-156.29 24.121c0-21.571-18.352-39.121-40.91-39.121h-32.332a7.504 7.504 0 0 0-7.5 7.525l-.04 121.646a7.5 7.5 0 0 0 15 0v-50.83l3.537-.019 49.114 55.804a7.478 7.478 0 0 0 5.633 2.545 7.5 7.5 0 0 0 5.627-12.455l-40.461-45.973 1.421-.001c22.559 0 40.911-17.55 40.911-39.121zm-40.91-24.121c14.045 0 25.91 11.046 25.91 24.121s-11.865 24.121-25.91 24.121c-5.665 0-17.062.056-24.651.097-.042-7.505-.133-40.54-.157-48.338h24.808zM102.098 309.435a51.164 51.164 0 0 1-19.784-3.942 7.5 7.5 0 1 0-5.773 13.845c8.113 3.383 16.711 5.098 25.556 5.098 36.657 0 66.479-29.818 66.479-66.47 0-36.657-29.823-66.479-66.479-66.479-36.657 0-66.48 29.823-66.48 66.479 0 15.041 4.904 29.233 14.183 41.043a7.5 7.5 0 0 0 11.795-9.267c-7.182-9.141-10.978-20.129-10.978-31.776 0-28.386 23.094-51.479 51.48-51.479s51.479 23.094 51.479 51.479c.001 28.38-23.092 51.469-51.478 51.469z"/></svg>